<mxfile host="Electron" modified="2024-04-24T20:21:59.355Z" agent="Mozilla/5.0 (Windows NT 10.0; Win64; x64) AppleWebKit/537.36 (KHTML, like Gecko) draw.io/24.2.5 Chrome/120.0.6099.109 Electron/28.1.0 Safari/537.36" etag="JhyVELqvgRTIxpWNbVe2" version="24.2.5" type="device">
  <diagram name="Page-1" id="ikUayUQi8SmDMjlF-fXh">
    <mxGraphModel dx="1500" dy="887" grid="1" gridSize="10" guides="1" tooltips="1" connect="1" arrows="1" fold="1" page="1" pageScale="1" pageWidth="850" pageHeight="1100" math="0" shadow="0">
      <root>
        <mxCell id="0" />
        <mxCell id="1" parent="0" />
        <mxCell id="qf3JFSSwqfoTlAxtRm9a-1" value="Khách hàng" style="swimlane;whiteSpace=wrap;html=1;fontSize=21;startSize=40;" parent="1" vertex="1">
          <mxGeometry x="170" y="110" width="500" height="1290" as="geometry" />
        </mxCell>
        <mxCell id="qf3JFSSwqfoTlAxtRm9a-2" value="" style="ellipse;html=1;shape=startState;fillColor=#000000;strokeColor=#ff0000;" parent="qf3JFSSwqfoTlAxtRm9a-1" vertex="1">
          <mxGeometry x="50" y="90" width="70" height="70" as="geometry" />
        </mxCell>
        <mxCell id="qf3JFSSwqfoTlAxtRm9a-3" value="" style="edgeStyle=orthogonalEdgeStyle;html=1;verticalAlign=bottom;endArrow=open;endSize=8;strokeColor=#ff0000;rounded=0;entryX=0;entryY=0.5;entryDx=0;entryDy=0;" parent="qf3JFSSwqfoTlAxtRm9a-1" source="qf3JFSSwqfoTlAxtRm9a-2" target="qf3JFSSwqfoTlAxtRm9a-5" edge="1">
          <mxGeometry relative="1" as="geometry">
            <mxPoint x="105" y="220" as="targetPoint" />
          </mxGeometry>
        </mxCell>
        <mxCell id="qf3JFSSwqfoTlAxtRm9a-4" style="edgeStyle=orthogonalEdgeStyle;rounded=0;orthogonalLoop=1;jettySize=auto;html=1;entryX=0.5;entryY=0;entryDx=0;entryDy=0;" parent="qf3JFSSwqfoTlAxtRm9a-1" source="qf3JFSSwqfoTlAxtRm9a-5" target="qf3JFSSwqfoTlAxtRm9a-6" edge="1">
          <mxGeometry relative="1" as="geometry" />
        </mxCell>
        <mxCell id="qf3JFSSwqfoTlAxtRm9a-5" value="Quét mã QR được đặt ở bàn" style="rounded=1;whiteSpace=wrap;html=1;fontSize=17;gradientColor=#e6e2ee;fillColor=#45A8FF;" parent="qf3JFSSwqfoTlAxtRm9a-1" vertex="1">
          <mxGeometry x="170" y="100" width="240" height="50" as="geometry" />
        </mxCell>
        <mxCell id="qf3JFSSwqfoTlAxtRm9a-6" value="Nhập số điện thoại" style="rounded=1;whiteSpace=wrap;html=1;fontSize=17;fillColor=#45A8FF;gradientColor=#E6E2EE;" parent="qf3JFSSwqfoTlAxtRm9a-1" vertex="1">
          <mxGeometry x="170" y="230" width="240" height="50" as="geometry" />
        </mxCell>
        <mxCell id="qf3JFSSwqfoTlAxtRm9a-7" style="edgeStyle=orthogonalEdgeStyle;rounded=0;orthogonalLoop=1;jettySize=auto;html=1;entryX=0.5;entryY=0;entryDx=0;entryDy=0;" parent="qf3JFSSwqfoTlAxtRm9a-1" source="qf3JFSSwqfoTlAxtRm9a-8" target="qf3JFSSwqfoTlAxtRm9a-10" edge="1">
          <mxGeometry relative="1" as="geometry" />
        </mxCell>
        <mxCell id="qf3JFSSwqfoTlAxtRm9a-8" value="Bấm vào đơn hàng" style="rounded=1;whiteSpace=wrap;html=1;fontSize=17;fillColor=#45A8FF;gradientColor=#E6E2EE;" parent="qf3JFSSwqfoTlAxtRm9a-1" vertex="1">
          <mxGeometry x="170" y="370" width="240" height="50" as="geometry" />
        </mxCell>
        <mxCell id="qf3JFSSwqfoTlAxtRm9a-9" style="edgeStyle=orthogonalEdgeStyle;rounded=0;orthogonalLoop=1;jettySize=auto;html=1;entryX=0.5;entryY=0;entryDx=0;entryDy=0;" parent="qf3JFSSwqfoTlAxtRm9a-1" source="qf3JFSSwqfoTlAxtRm9a-10" target="qf3JFSSwqfoTlAxtRm9a-11" edge="1">
          <mxGeometry relative="1" as="geometry" />
        </mxCell>
        <mxCell id="qf3JFSSwqfoTlAxtRm9a-10" value="Chọn món muốn xóa" style="rounded=1;whiteSpace=wrap;html=1;fontSize=17;fillColor=#45A8FF;gradientColor=#E6E2EE;" parent="qf3JFSSwqfoTlAxtRm9a-1" vertex="1">
          <mxGeometry x="170" y="480" width="240" height="50" as="geometry" />
        </mxCell>
        <mxCell id="qf3JFSSwqfoTlAxtRm9a-11" value="Bấm hoàn thành đơn" style="rounded=1;whiteSpace=wrap;html=1;fontSize=17;fillColor=#45A8FF;gradientColor=#E6E2EE;" parent="qf3JFSSwqfoTlAxtRm9a-1" vertex="1">
          <mxGeometry x="170" y="590" width="240" height="50" as="geometry" />
        </mxCell>
        <mxCell id="qf3JFSSwqfoTlAxtRm9a-22" value="Thoát khỏi hệ thống" style="rounded=1;whiteSpace=wrap;html=1;fontSize=17;fillColor=#45A8FF;gradientColor=#E6E2EE;" parent="qf3JFSSwqfoTlAxtRm9a-1" vertex="1">
          <mxGeometry x="170" y="1030" width="240" height="50" as="geometry" />
        </mxCell>
        <mxCell id="qf3JFSSwqfoTlAxtRm9a-21" style="edgeStyle=orthogonalEdgeStyle;rounded=0;orthogonalLoop=1;jettySize=auto;html=1;entryX=0.5;entryY=0;entryDx=0;entryDy=0;" parent="qf3JFSSwqfoTlAxtRm9a-1" source="qf3JFSSwqfoTlAxtRm9a-22" target="qf3JFSSwqfoTlAxtRm9a-23" edge="1">
          <mxGeometry relative="1" as="geometry" />
        </mxCell>
        <mxCell id="qf3JFSSwqfoTlAxtRm9a-23" value="" style="ellipse;html=1;shape=endState;fillColor=#000000;strokeColor=#ff0000;" parent="qf3JFSSwqfoTlAxtRm9a-1" vertex="1">
          <mxGeometry x="260" y="1130" width="60" height="60" as="geometry" />
        </mxCell>
        <mxCell id="qf3JFSSwqfoTlAxtRm9a-12" value="Hệ thống" style="swimlane;whiteSpace=wrap;html=1;fontSize=21;startSize=40;" parent="1" vertex="1">
          <mxGeometry x="670" y="110" width="600" height="1290" as="geometry" />
        </mxCell>
        <mxCell id="qf3JFSSwqfoTlAxtRm9a-13" value="Hiển thị giao diện hệ thống" style="rounded=1;whiteSpace=wrap;html=1;fontSize=17;fillColor=#45A8FF;gradientColor=#E6E2EE;" parent="qf3JFSSwqfoTlAxtRm9a-12" vertex="1">
          <mxGeometry x="115" y="230" width="240" height="50" as="geometry" />
        </mxCell>
        <mxCell id="qf3JFSSwqfoTlAxtRm9a-18" value="Món đã được làm hoặc hệ thống gặp lỗi" style="rhombus;whiteSpace=wrap;html=1;fontSize=17;fillStyle=hatch;fillColor=#FF3341;gradientColor=#e4cdcd;gradientDirection=south;" parent="qf3JFSSwqfoTlAxtRm9a-12" vertex="1">
          <mxGeometry x="57.5" y="840" width="360" height="80" as="geometry" />
        </mxCell>
        <mxCell id="gmAc-lDiqosQcjuvonHV-4" style="edgeStyle=orthogonalEdgeStyle;rounded=0;orthogonalLoop=1;jettySize=auto;html=1;entryX=0.5;entryY=0;entryDx=0;entryDy=0;" parent="qf3JFSSwqfoTlAxtRm9a-12" source="gmAc-lDiqosQcjuvonHV-2" target="qf3JFSSwqfoTlAxtRm9a-18" edge="1">
          <mxGeometry relative="1" as="geometry" />
        </mxCell>
        <mxCell id="gmAc-lDiqosQcjuvonHV-2" value="Xóa món thành công" style="rounded=1;whiteSpace=wrap;html=1;fontSize=17;fillColor=#45A8FF;gradientColor=#E6E2EE;" parent="qf3JFSSwqfoTlAxtRm9a-12" vertex="1">
          <mxGeometry x="117.5" y="590" width="240" height="50" as="geometry" />
        </mxCell>
        <mxCell id="qf3JFSSwqfoTlAxtRm9a-24" style="edgeStyle=orthogonalEdgeStyle;rounded=0;orthogonalLoop=1;jettySize=auto;html=1;entryX=0;entryY=0.5;entryDx=0;entryDy=0;" parent="1" source="qf3JFSSwqfoTlAxtRm9a-6" target="qf3JFSSwqfoTlAxtRm9a-13" edge="1">
          <mxGeometry relative="1" as="geometry" />
        </mxCell>
        <mxCell id="qf3JFSSwqfoTlAxtRm9a-25" style="edgeStyle=orthogonalEdgeStyle;rounded=0;orthogonalLoop=1;jettySize=auto;html=1;entryX=1;entryY=0.5;entryDx=0;entryDy=0;exitX=0.5;exitY=1;exitDx=0;exitDy=0;" parent="1" source="qf3JFSSwqfoTlAxtRm9a-13" target="qf3JFSSwqfoTlAxtRm9a-8" edge="1">
          <mxGeometry relative="1" as="geometry" />
        </mxCell>
        <mxCell id="qf3JFSSwqfoTlAxtRm9a-14" style="edgeStyle=orthogonalEdgeStyle;rounded=0;orthogonalLoop=1;jettySize=auto;html=1;entryX=0.5;entryY=0;entryDx=0;entryDy=0;" parent="1" source="qf3JFSSwqfoTlAxtRm9a-18" target="qf3JFSSwqfoTlAxtRm9a-22" edge="1">
          <mxGeometry relative="1" as="geometry" />
        </mxCell>
        <mxCell id="qf3JFSSwqfoTlAxtRm9a-15" value="&lt;span style=&quot;font-size: 17px;&quot;&gt;NO&lt;/span&gt;" style="edgeLabel;html=1;align=center;verticalAlign=middle;resizable=0;points=[];fontStyle=1" parent="qf3JFSSwqfoTlAxtRm9a-14" vertex="1" connectable="0">
          <mxGeometry x="-0.4128" y="-1" relative="1" as="geometry">
            <mxPoint as="offset" />
          </mxGeometry>
        </mxCell>
        <mxCell id="qf3JFSSwqfoTlAxtRm9a-16" style="edgeStyle=orthogonalEdgeStyle;rounded=0;orthogonalLoop=1;jettySize=auto;html=1;entryX=0.5;entryY=0;entryDx=0;entryDy=0;exitX=1;exitY=0.5;exitDx=0;exitDy=0;" parent="1" source="qf3JFSSwqfoTlAxtRm9a-18" target="qf3JFSSwqfoTlAxtRm9a-20" edge="1">
          <mxGeometry relative="1" as="geometry" />
        </mxCell>
        <mxCell id="qf3JFSSwqfoTlAxtRm9a-17" value="&lt;span style=&quot;font-size: 17px;&quot;&gt;YES&lt;/span&gt;" style="edgeLabel;html=1;align=center;verticalAlign=middle;resizable=0;points=[];fontStyle=1" parent="qf3JFSSwqfoTlAxtRm9a-16" vertex="1" connectable="0">
          <mxGeometry x="-0.587" y="-4" relative="1" as="geometry">
            <mxPoint x="-1" as="offset" />
          </mxGeometry>
        </mxCell>
        <mxCell id="qf3JFSSwqfoTlAxtRm9a-20" value="Thông báo &quot; Hệ thống xóa món không thành công&quot;" style="rounded=1;whiteSpace=wrap;html=1;fontSize=17;fillColor=#45A8FF;gradientColor=#E6E2EE;" parent="1" vertex="1">
          <mxGeometry x="1012.5" y="1085" width="240" height="50" as="geometry" />
        </mxCell>
        <mxCell id="qf3JFSSwqfoTlAxtRm9a-19" style="edgeStyle=orthogonalEdgeStyle;rounded=0;orthogonalLoop=1;jettySize=auto;html=1;entryX=1;entryY=0.5;entryDx=0;entryDy=0;exitX=0.5;exitY=1;exitDx=0;exitDy=0;" parent="1" source="qf3JFSSwqfoTlAxtRm9a-20" target="qf3JFSSwqfoTlAxtRm9a-23" edge="1">
          <mxGeometry relative="1" as="geometry" />
        </mxCell>
        <mxCell id="gmAc-lDiqosQcjuvonHV-3" style="edgeStyle=orthogonalEdgeStyle;rounded=0;orthogonalLoop=1;jettySize=auto;html=1;entryX=0;entryY=0.5;entryDx=0;entryDy=0;" parent="1" source="qf3JFSSwqfoTlAxtRm9a-11" target="gmAc-lDiqosQcjuvonHV-2" edge="1">
          <mxGeometry relative="1" as="geometry" />
        </mxCell>
      </root>
    </mxGraphModel>
  </diagram>
</mxfile>
